<svg width="25" height="25" viewBox="0 0 25 25" fill="none" xmlns="http://www.w3.org/2000/svg">
<path d="M19.6429 11.6071V13.3929C19.6429 13.7612 19.3415 14.0625 18.9732 14.0625H14.0625V18.9732C14.0625 19.3415 13.7612 19.6429 13.3929 19.6429H11.6071C11.2388 19.6429 10.9375 19.3415 10.9375 18.9732V14.0625H6.02679C5.65848 14.0625 5.35714 13.7612 5.35714 13.3929V11.6071C5.35714 11.2388 5.65848 10.9375 6.02679 10.9375H10.9375V6.02679C10.9375 5.65848 11.2388 5.35714 11.6071 5.35714H13.3929C13.7612 5.35714 14.0625 5.65848 14.0625 6.02679V10.9375H18.9732C19.3415 10.9375 19.6429 11.2388 19.6429 11.6071ZM25 2.67857V22.3214C25 23.8002 23.8002 25 22.3214 25H2.67857C1.19978 25 0 23.8002 0 22.3214V2.67857C0 1.19978 1.19978 0 2.67857 0H22.3214C23.8002 0 25 1.19978 25 2.67857ZM22.3214 21.9866V3.01339C22.3214 2.82924 22.1708 2.67857 21.9866 2.67857H3.01339C2.82924 2.67857 2.67857 2.82924 2.67857 3.01339V21.9866C2.67857 22.1708 2.82924 22.3214 3.01339 22.3214H21.9866C22.1708 22.3214 22.3214 22.1708 22.3214 21.9866Z" fill="black"/>
</svg>
