<svg width="27" height="27" viewBox="0 0 27 27" fill="none" xmlns="http://www.w3.org/2000/svg">
<path d="M13.7453 15.9584L13.4428 15.8504L13.2188 16.0806C12.0281 17.304 10.7485 17.7481 9.56295 17.6834C8.36521 17.618 7.20478 17.0296 6.28122 16.0806L6.05721 15.8504L5.75473 15.9584L3.31726 16.829L3.48543 17.2998L3.31726 16.829C1.57746 17.4503 0.5 19.5851 0.5 21.8474V23.6562C0.5 24.3935 0.708364 25.0823 1.07091 25.6003C1.43236 26.1166 1.97964 26.5 2.64063 26.5H16.8594C17.5204 26.5 18.0677 26.1166 18.4291 25.6003C18.7917 25.0823 19 24.3935 19 23.6562V21.8474C19 19.5851 17.9226 17.4503 16.1828 16.829L16.0189 17.2876L16.1828 16.829L13.7453 15.9584ZM23.7388 8.05183L24.1484 8.33856L23.7388 8.05183L22.25 10.1786L20.7613 8.05183C20.5966 7.81662 20.3362 7.6429 20.021 7.6429C19.7058 7.6429 19.4453 7.81662 19.2807 8.05183L18.2274 9.55652C18.0662 9.78674 18.0001 10.0631 18.0001 10.3157C18.0001 10.5682 18.0662 10.8446 18.2274 11.0748L19.925 13.5L18.2274 15.9252C18.0662 16.1554 18.0001 16.4318 18.0001 16.6843C18.0001 16.9369 18.0662 17.2133 18.2274 17.4435L19.2807 18.9482C19.4453 19.1834 19.7058 19.3571 20.021 19.3571C20.3362 19.3571 20.5966 19.1834 20.7613 18.9482L22.25 16.8215L23.7388 18.9482C23.9034 19.1834 24.1639 19.3571 24.4791 19.3571C24.7943 19.3571 25.0547 19.1834 25.2194 18.9482L26.2727 17.4435C26.4338 17.2133 26.5 16.9369 26.5 16.6843C26.5 16.4318 26.4338 16.1554 26.2727 15.9252L24.5751 13.5L26.2727 11.0748C26.4338 10.8446 26.5 10.5682 26.5 10.3157C26.5 10.0631 26.4338 9.78674 26.2727 9.55652L25.2194 8.05183C25.0547 7.81662 24.7943 7.6429 24.4791 7.6429C24.1639 7.6429 23.9034 7.81662 23.7388 8.05183ZM15.7188 8.8125C15.7188 6.56513 15.0819 4.50907 14.0266 3.00149C12.9724 1.4955 11.4681 0.5 9.75001 0.5C8.03192 0.5 6.5276 1.4955 5.4734 3.00149C4.41809 4.50907 3.78125 6.56513 3.78125 8.8125C3.78125 11.0599 4.4181 13.1159 5.4734 14.6235C6.5276 16.1295 8.03192 17.125 9.75001 17.125C11.4681 17.125 12.9724 16.1295 14.0266 14.6235C15.0819 13.1159 15.7188 11.0599 15.7188 8.8125Z" fill="black" stroke="#F2F2F2" stroke-linecap="round"/>
</svg>
