<svg width="27" height="27" viewBox="0 0 27 27" fill="none" xmlns="http://www.w3.org/2000/svg">
<path d="M26.0154 22.2624L26.0135 22.2605L21.145 17.3928C20.8698 17.1176 20.5099 16.9505 20.1275 16.9128C21.1957 15.2524 21.814 13.2766 21.814 11.1553C21.814 5.26923 17.0438 0.5 11.157 0.5C5.27017 0.5 0.5 5.26923 0.5 11.1553C0.5 17.0413 5.27017 21.8105 11.157 21.8105C13.2788 21.8105 15.2549 21.1923 16.9156 20.1242C16.9533 20.5066 17.1205 20.8665 17.3957 21.1417L22.2643 26.0094C22.9172 26.6622 23.9767 26.6652 24.6276 26.0085C24.6279 26.0082 24.6283 26.0078 24.6286 26.0075L26.0086 24.6277C26.6627 23.9738 26.6626 22.9165 26.0154 22.2624ZM11.157 16.9046C7.9804 16.9046 5.40654 14.3355 5.40654 11.1553C5.40654 7.97942 7.97602 5.40587 11.157 5.40587C14.3336 5.40587 16.9074 7.97504 16.9074 11.1553C16.9074 14.3311 14.338 16.9046 11.157 16.9046Z" fill="black" stroke="#F2F2F2" stroke-linecap="round"/>
</svg>
