<svg width="30" height="30" viewBox="0 0 30 30" fill="none" xmlns="http://www.w3.org/2000/svg">
<path d="M22.7419 16.2097V13.7903C22.7419 13.3911 22.4153 13.0645 22.0161 13.0645H15V9.0121C15 8.36492 14.2198 8.04436 13.7601 8.49798L7.77218 14.4859C7.4879 14.7702 7.4879 15.2298 7.77218 15.5141L13.7601 21.502C14.2198 21.9617 15 21.6351 15 20.9879V16.9355H22.0161C22.4153 16.9355 22.7419 16.6089 22.7419 16.2097Z" fill="#D70101"/>
<path fill-rule="evenodd" clip-rule="evenodd" d="M0 15C0 6.71371 6.71371 0 15 0C23.2863 0 30 6.71371 30 15C30 23.2863 23.2863 30 15 30C6.71371 30 0 23.2863 0 15ZM15 2.90323C21.6835 2.90323 27.0968 8.31653 27.0968 15C27.0968 21.6835 21.6835 27.0968 15 27.0968C8.31653 27.0968 2.90323 21.6835 2.90323 15C2.90323 8.31653 8.31653 2.90323 15 2.90323Z" fill="#D70101"/>
</svg>
