<svg width="15" height="15" viewBox="0 0 15 15" fill="none" xmlns="http://www.w3.org/2000/svg">
<path d="M14.5709 8.39912C14.845 7.96406 15 7.5 15 6.93896C15 5.64946 13.8369 4.43174 12.3181 4.43174H11.1781C11.3319 4.05645 11.4547 3.60762 11.4547 3.06826C11.4547 0.935625 10.2769 0 8.4775 0C6.55228 0 6.66209 2.78124 6.235 3.18164C5.52416 3.84806 4.68453 5.12833 4.08625 5.625H1C0.447719 5.625 0 6.04474 0 6.5625V13.5938C0 14.1115 0.447719 14.5312 1 14.5312H3C3.46541 14.5312 3.8565 14.2332 3.96806 13.8296C5.35897 13.8589 6.31369 14.9997 9.52437 14.9997C9.75 14.9997 10 15 10.2188 15C12.6287 15 13.7183 13.845 13.7481 12.2071C14.1643 11.6673 14.3825 10.9438 14.29 10.2445C14.5979 9.70395 14.717 9.06261 14.5709 8.39912ZM12.6412 9.97617C13.0337 10.5952 12.6806 11.4237 12.2056 11.6628C12.4462 13.0919 11.6554 13.5935 10.5456 13.5935H9.36375C7.12503 13.5935 5.67534 12.4854 4 12.4854V7.03125H4.34125C5.2275 7.03125 6.46563 4.95439 7.29563 4.17598C8.18188 3.34512 7.88656 1.96025 8.4775 1.40625C9.95469 1.40625 9.95469 2.37246 9.95469 3.06826C9.95469 4.21582 9.06844 4.72998 9.06844 5.83799H12.3181C12.9778 5.83799 13.4972 6.39199 13.5 6.946C13.5028 7.49971 13.0994 8.05371 12.8041 8.05371C13.2256 8.48013 13.3157 9.37898 12.6412 9.97617ZM2.75 12.6562C2.75 13.0446 2.41422 13.3594 2 13.3594C1.58578 13.3594 1.25 13.0446 1.25 12.6562C1.25 12.2679 1.58578 11.9531 2 11.9531C2.41422 11.9531 2.75 12.2679 2.75 12.6562Z" fill="black"/>
</svg>
