<svg width="30" height="30" viewBox="0 0 30 30" fill="none" xmlns="http://www.w3.org/2000/svg">
<path d="M13.3907 1.04358L10.8655 6.39279C10.1551 7.89785 8.74227 8.95073 7.09692 9.20135L1.53647 10.0483C0.0673162 10.271 -0.521468 12.1633 0.543951 13.2472L4.69257 17.4709C5.81034 18.6089 6.31804 20.2119 6.05919 21.7859L5.06918 27.8059C4.81684 29.3467 6.37011 30.5009 7.67104 29.7803L12.5932 27.0771C14.0921 26.2539 15.9079 26.2539 17.4068 27.0771L22.329 29.7803C23.6299 30.495 25.1832 29.3467 24.9308 27.8059L23.9408 21.7859C23.682 20.2119 24.1897 18.6089 25.3074 17.4709L29.4561 13.2472C30.5215 12.1633 29.9327 10.271 28.4635 10.0483L22.9031 9.20135C21.2577 8.95073 19.8449 7.89785 19.1345 6.39279L16.6093 1.04358C15.9533 -0.339059 14.0523 -0.356635 13.3907 1.04358Z" fill="#FFC700"/>
</svg>
